{
date = "2013-05-07 17:01:52 +0000";
designer = "Shinji Pons";
designerURL = www.shinjipons.com;
familyName = "Modulo 12";
fontMaster = (
{
alignmentZones = (
"{1280, 10}",
"{0, -10}"
);
ascender = 1280;
capHeight = 1280;
customParameters = (
{
name = familyName;
value = "Modulo 12";
}
);
descender = 0;
guideLines = (
{
position = "{1540, 1160}";
},
{
position = "{1520, 700}";
},
{
position = "{1519.988, 580}";
},
{
position = "{1540, 120}";
},
{
angle = 90;
position = "{200, -120}";
},
{
angle = 90;
position = "{780, -160}";
},
{
angle = 90;
position = "{1240, -180}";
},
{
angle = 90;
position = "{1360, -140}";
},
{
angle = 90;
position = "{80, -140}";
},
{
angle = 90;
position = "{660, -160}";
}
);
horizontalStems = (
120
);
id = "940E2F63-624A-4C3D-A909-721782B4CF41";
verticalStems = (
120
);
weightValue = 12;
widthValue = 128;
xHeight = 1280;
}
);
glyphs = (
{
glyphname = A;
lastChange = "2014-01-05 14:11:34 +0000";
layers = (
{
layerId = "940E2F63-624A-4C3D-A909-721782B4CF41";
name = Regular;
paths = (
{
closed = 1;
nodes = (
"140 1280 LINE SMOOTH",
"106.86 1280 OFFCURVE",
"80 1253.14 OFFCURVE",
"80 1220 CURVE SMOOTH",
"80 1186.86 OFFCURVE",
"106.86 1160 OFFCURVE",
"140 1160 CURVE SMOOTH",
"1240 1160 LINE",
"1240 120 LINE",
"200 120 LINE",
"200 580 LINE",
"719.988 580 LINE SMOOTH",
"753.14 580 OFFCURVE",
"780 606.86 OFFCURVE",
"780 640 CURVE SMOOTH",
"780 673.14 OFFCURVE",
"753.14 700 OFFCURVE",
"720 700 CURVE SMOOTH",
"140 700 LINE SMOOTH",
"106.86 700 OFFCURVE",
"80 673.14 OFFCURVE",
"80 640 CURVE SMOOTH",
"80 60 LINE SMOOTH",
"80 26.86 OFFCURVE",
"106.86 0 OFFCURVE",
"140 0 CURVE SMOOTH",
"1300 0 LINE SMOOTH",
"1333.14 0 OFFCURVE",
"1360 26.86 OFFCURVE",
"1360 60 CURVE SMOOTH",
"1360 1220 LINE SMOOTH",
"1360 1253.14 OFFCURVE",
"1333.14 1280 OFFCURVE",
"1300 1280 CURVE SMOOTH"
);
}
);
width = 1440;
}
);
unicode = 0041;
},
{
glyphname = B;
lastChange = "2014-01-05 14:11:34 +0000";
layers = (
{
layerId = "940E2F63-624A-4C3D-A909-721782B4CF41";
name = Regular;
paths = (
{
closed = 1;
nodes = (
"140 1280 LINE SMOOTH",
"106.86 1280 OFFCURVE",
"80 1253.14 OFFCURVE",
"80 1220 CURVE SMOOTH",
"80 60 LINE SMOOTH",
"80 26.86 OFFCURVE",
"106.86 0 OFFCURVE",
"140 0 CURVE SMOOTH",
"173.14 0 OFFCURVE",
"200 26.86 OFFCURVE",
"200 60 CURVE SMOOTH",
"200 1160 LINE",
"1240 1160 LINE",
"1240 700 LINE",
"720 700 LINE SMOOTH",
"686.86 700 OFFCURVE",
"660 673.14 OFFCURVE",
"660 640 CURVE SMOOTH",
"660 606.86 OFFCURVE",
"686.86 580 OFFCURVE",
"720 580 CURVE SMOOTH",
"1240 580.717 LINE",
"1240 120 LINE",
"720 120 LINE SMOOTH",
"686.86 120 OFFCURVE",
"660 93.14 OFFCURVE",
"660 60 CURVE SMOOTH",
"660 26.86 OFFCURVE",
"686.86 0 OFFCURVE",
"720 0 CURVE SMOOTH",
"1300 0 LINE SMOOTH",
"1333.14 0 OFFCURVE",
"1360 26.86 OFFCURVE",
"1360 60 CURVE SMOOTH",
"1360 1220 LINE SMOOTH",
"1360 1253.14 OFFCURVE",
"1333.14 1280 OFFCURVE",
"1300 1280 CURVE SMOOTH"
);
}
);
width = 1440;
}
);
unicode = 0042;
},
{
glyphname = C;
lastChange = "2014-01-05 14:11:34 +0000";
layers = (
{
layerId = "940E2F63-624A-4C3D-A909-721782B4CF41";
name = Regular;
paths = (
{
closed = 1;
nodes = (
"140 1280 LINE SMOOTH",
"106.86 1280 OFFCURVE",
"80 1253.14 OFFCURVE",
"80 1220 CURVE SMOOTH",
"80 60 LINE SMOOTH",
"80 26.86 OFFCURVE",
"106.86 0 OFFCURVE",
"140 0 CURVE SMOOTH",
"1300 0 LINE SMOOTH",
"1333.14 0 OFFCURVE",
"1360 26.86 OFFCURVE",
"1360 60 CURVE SMOOTH",
"1360 93.14 OFFCURVE",
"1333.14 120 OFFCURVE",
"1300 120 CURVE SMOOTH",
"200 120 LINE",
"200 1160 LINE",
"1300 1160 LINE SMOOTH",
"1333.14 1160 OFFCURVE",
"1360 1186.86 OFFCURVE",
"1360 1220 CURVE SMOOTH",
"1360 1253.14 OFFCURVE",
"1333.14 1280 OFFCURVE",
"1300 1280 CURVE SMOOTH"
);
}
);
width = 1440;
}
);
unicode = 0043;
},
{
glyphname = D;
lastChange = "2014-01-05 14:11:34 +0000";
layers = (
{
layerId = "940E2F63-624A-4C3D-A909-721782B4CF41";
name = Regular;
paths = (
{
closed = 1;
nodes = (
"140 1280 LINE SMOOTH",
"106.86 1280 OFFCURVE",
"80 1253.14 OFFCURVE",
"80 1220 CURVE SMOOTH",
"80 1186.86 OFFCURVE",
"106.86 1160 OFFCURVE",
"140 1160 CURVE SMOOTH",
"1240 1160 LINE",
"1240 120 LINE",
"200 120 LINE",
"200 640 LINE SMOOTH",
"200 673.14 OFFCURVE",
"173.14 700 OFFCURVE",
"140 700 CURVE SMOOTH",
"106.86 700 OFFCURVE",
"80 673.14 OFFCURVE",
"80 640 CURVE SMOOTH",
"80 60 LINE SMOOTH",
"80 26.86 OFFCURVE",
"106.86 0 OFFCURVE",
"140 0 CURVE SMOOTH",
"1300 0 LINE SMOOTH",
"1333.14 0 OFFCURVE",
"1360 26.86 OFFCURVE",
"1360 60 CURVE SMOOTH",
"1360 1220 LINE SMOOTH",
"1360 1253.14 OFFCURVE",
"1333.14 1280 OFFCURVE",
"1300 1280 CURVE SMOOTH"
);
}
);
width = 1440;
}
);
unicode = 0044;
},
{
glyphname = E;
lastChange = "2014-01-05 14:11:34 +0000";
layers = (
{
layerId = "940E2F63-624A-4C3D-A909-721782B4CF41";
name = Regular;
paths = (
{
closed = 1;
nodes = (
"720 1280 LINE SMOOTH",
"686.86 1280 OFFCURVE",
"660 1253.14 OFFCURVE",
"660 1220 CURVE SMOOTH",
"660 1186.86 OFFCURVE",
"686.86 1160 OFFCURVE",
"720 1160 CURVE SMOOTH",
"1240 1160 LINE",
"1240 700 LINE",
"200 700 LINE",
"200 1220 LINE SMOOTH",
"200 1253.14 OFFCURVE",
"173.14 1280 OFFCURVE",
"140 1280 CURVE SMOOTH",
"106.86 1280 OFFCURVE",
"80 1253.14 OFFCURVE",
"80 1220 CURVE SMOOTH",
"80 60 LINE SMOOTH",
"80 26.86 OFFCURVE",
"106.86 0 OFFCURVE",
"140 0 CURVE SMOOTH",
"1300 0 LINE SMOOTH",
"1333.14 0 OFFCURVE",
"1360 26.86 OFFCURVE",
"1360 60 CURVE SMOOTH",
"1360 93.14 OFFCURVE",
"1333.14 120 OFFCURVE",
"1300 120 CURVE SMOOTH",
"200 120 LINE",
"200 580 LINE",
"1300 580 LINE SMOOTH",
"1333.14 580 OFFCURVE",
"1360 606.86 OFFCURVE",
"1360 640 CURVE SMOOTH",
"1360 1220 LINE SMOOTH",
"1360 1253.14 OFFCURVE",
"1333.14 1280 OFFCURVE",
"1300 1280 CURVE SMOOTH"
);
}
);
width = 1440;
}
);
unicode = 0045;
},
{
glyphname = F;
lastChange = "2014-01-05 14:11:34 +0000";
layers = (
{
layerId = "940E2F63-624A-4C3D-A909-721782B4CF41";
name = Regular;
paths = (
{
closed = 1;
nodes = (
"140 1280 LINE SMOOTH",
"106.86 1280 OFFCURVE",
"80 1253.14 OFFCURVE",
"80 1220 CURVE SMOOTH",
"80 60 LINE SMOOTH",
"80 26.86 OFFCURVE",
"106.86 0 OFFCURVE",
"140 0 CURVE SMOOTH",
"173.14 0 OFFCURVE",
"200 26.86 OFFCURVE",
"200 60 CURVE SMOOTH",
"200 580 LINE",
"1300 580 LINE SMOOTH",
"1333.14 580 OFFCURVE",
"1360 606.86 OFFCURVE",
"1360 640 CURVE SMOOTH",
"1360 673.14 OFFCURVE",
"1333.14 700 OFFCURVE",
"1300 700 CURVE SMOOTH",
"200 700 LINE",
"200 1160 LINE",
"1300 1160 LINE SMOOTH",
"1333.14 1160 OFFCURVE",
"1360 1186.86 OFFCURVE",
"1360 1220 CURVE SMOOTH",
"1360 1253.14 OFFCURVE",
"1333.14 1280 OFFCURVE",
"1300 1280 CURVE SMOOTH"
);
}
);
width = 1440;
}
);
unicode = 0046;
},
{
glyphname = H;
lastChange = "2014-01-05 14:11:34 +0000";
layers = (
{
layerId = "940E2F63-624A-4C3D-A909-721782B4CF41";
name = Regular;
paths = (
{
closed = 1;
nodes = (
"1266.86 1280 OFFCURVE",
"1240 1253.14 OFFCURVE",
"1240 1220 CURVE SMOOTH",
"1240 700 LINE",
"200 700 LINE",
"200 1220 LINE SMOOTH",
"200 1253.14 OFFCURVE",
"173.14 1280 OFFCURVE",
"140 1280 CURVE SMOOTH",
"106.86 1280 OFFCURVE",
"80 1253.14 OFFCURVE",
"80 1220 CURVE SMOOTH",
"80 60 LINE SMOOTH",
"80 26.86 OFFCURVE",
"106.86 0 OFFCURVE",
"140 0 CURVE SMOOTH",
"173.14 0 OFFCURVE",
"200 26.86 OFFCURVE",
"200 60 CURVE SMOOTH",
"200 580 LINE",
"1240 580 LINE",
"1240 60 LINE SMOOTH",
"1240 26.86 OFFCURVE",
"1266.86 0 OFFCURVE",
"1300 0 CURVE SMOOTH",
"1333.14 0 OFFCURVE",
"1360 26.86 OFFCURVE",
"1360 60 CURVE SMOOTH",
"1360 1220 LINE SMOOTH",
"1360 1253.14 OFFCURVE",
"1333.14 1280 OFFCURVE",
"1300 1280 CURVE SMOOTH"
);
}
);
width = 1440;
}
);
unicode = 0048;
},
{
glyphname = J;
lastChange = "2014-01-05 14:11:34 +0000";
layers = (
{
layerId = "940E2F63-624A-4C3D-A909-721782B4CF41";
name = Regular;
paths = (
{
closed = 1;
nodes = (
"720 1280 LINE SMOOTH",
"686.86 1280 OFFCURVE",
"660 1253.14 OFFCURVE",
"660 1220 CURVE SMOOTH",
"660 1186.86 OFFCURVE",
"686.86 1160 OFFCURVE",
"720 1160 CURVE SMOOTH",
"1240 1160 LINE",
"1240 120 LINE",
"140 120 LINE SMOOTH",
"106.86 120 OFFCURVE",
"80 93.14 OFFCURVE",
"80 60 CURVE SMOOTH",
"80 26.86 OFFCURVE",
"106.86 0 OFFCURVE",
"140 0 CURVE SMOOTH",
"1300 0 LINE SMOOTH",
"1333.14 0 OFFCURVE",
"1360 26.86 OFFCURVE",
"1360 60 CURVE SMOOTH",
"1360 1220 LINE SMOOTH",
"1360 1253.14 OFFCURVE",
"1333.14 1280 OFFCURVE",
"1300 1280 CURVE SMOOTH"
);
}
);
width = 1440;
}
);
unicode = 004A;
},
{
glyphname = K;
lastChange = "2014-01-05 14:11:34 +0000";
layers = (
{
layerId = "940E2F63-624A-4C3D-A909-721782B4CF41";
name = Regular;
paths = (
{
closed = 1;
nodes = (
"720 1280 LINE SMOOTH",
"686.86 1280 OFFCURVE",
"660 1253.14 OFFCURVE",
"660 1220 CURVE SMOOTH",
"660 700 LINE",
"200 700 LINE",
"200 1219.83 LINE SMOOTH",
"200 1252.97 OFFCURVE",
"173.14 1279.83 OFFCURVE",
"140 1279.83 CURVE SMOOTH",
"106.86 1279.83 OFFCURVE",
"80 1252.97 OFFCURVE",
"80 1219.83 CURVE SMOOTH",
"80 60 LINE SMOOTH",
"80 26.86 OFFCURVE",
"106.86 0 OFFCURVE",
"140 0 CURVE SMOOTH",
"173.14 0 OFFCURVE",
"200 26.86 OFFCURVE",
"200 60 CURVE SMOOTH",
"200 580 LINE",
"1240 580 LINE",
"1240 60 LINE SMOOTH",
"1240 26.86 OFFCURVE",
"1266.86 0 OFFCURVE",
"1300 0 CURVE SMOOTH",
"1333.14 0 OFFCURVE",
"1360 26.86 OFFCURVE",
"1360 60 CURVE SMOOTH",
"1360 640 LINE SMOOTH",
"1360 673.14 OFFCURVE",
"1333.14 700 OFFCURVE",
"1300 700 CURVE SMOOTH",
"780 700 LINE",
"780 1160 LINE",
"1300 1160 LINE SMOOTH",
"1333.14 1160 OFFCURVE",
"1360 1186.86 OFFCURVE",
"1360 1220 CURVE SMOOTH",
"1360 1253.14 OFFCURVE",
"1333.14 1280 OFFCURVE",
"1300 1280 CURVE SMOOTH"
);
}
);
width = 1440;
}
);
unicode = 004B;
},
{
glyphname = L;
lastChange = "2014-01-05 14:11:34 +0000";
layers = (
{
layerId = "940E2F63-624A-4C3D-A909-721782B4CF41";
name = Regular;
paths = (
{
closed = 1;
nodes = (
"106.86 1279.83 OFFCURVE",
"80 1252.97 OFFCURVE",
"80 1219.83 CURVE SMOOTH",
"80 60 LINE SMOOTH",
"80 26.86 OFFCURVE",
"106.86 0 OFFCURVE",
"140 0 CURVE SMOOTH",
"1300 0 LINE SMOOTH",
"1333.14 0 OFFCURVE",
"1360 26.86 OFFCURVE",
"1360 60 CURVE SMOOTH",
"1360 93.14 OFFCURVE",
"1333.14 120 OFFCURVE",
"1300 120 CURVE SMOOTH",
"200 120 LINE",
"200 1219.83 LINE SMOOTH",
"200 1252.97 OFFCURVE",
"173.14 1279.83 OFFCURVE",
"140 1279.83 CURVE SMOOTH"
);
}
);
width = 1440;
}
);
unicode = 004C;
},
{
glyphname = M;
lastChange = "2014-01-05 14:11:34 +0000";
layers = (
{
layerId = "940E2F63-624A-4C3D-A909-721782B4CF41";
name = Regular;
paths = (
{
closed = 1;
nodes = (
"140 1280 LINE SMOOTH",
"106.86 1280 OFFCURVE",
"80 1253.14 OFFCURVE",
"80 1220 CURVE SMOOTH",
"80 60 LINE SMOOTH",
"80 26.86 OFFCURVE",
"106.86 0 OFFCURVE",
"140 0 CURVE SMOOTH",
"173.14 0 OFFCURVE",
"200 26.86 OFFCURVE",
"200 60 CURVE SMOOTH",
"200 1160 LINE",
"660 1160 LINE",
"660 60 LINE SMOOTH",
"660 26.86 OFFCURVE",
"686.86 0 OFFCURVE",
"720 0 CURVE SMOOTH",
"753.14 0 OFFCURVE",
"780 26.86 OFFCURVE",
"780 60 CURVE SMOOTH",
"780 1160 LINE",
"1240 1160 LINE",
"1240 60 LINE SMOOTH",
"1240 26.86 OFFCURVE",
"1266.86 0 OFFCURVE",
"1300 0 CURVE SMOOTH",
"1333.14 0 OFFCURVE",
"1360 26.86 OFFCURVE",
"1360 60 CURVE SMOOTH",
"1360 1220 LINE SMOOTH",
"1360 1253.14 OFFCURVE",
"1333.14 1280 OFFCURVE",
"1300 1280 CURVE SMOOTH"
);
}
);
width = 1440;
}
);
unicode = 004D;
},
{
glyphname = N;
lastChange = "2014-01-05 14:11:34 +0000";
layers = (
{
layerId = "940E2F63-624A-4C3D-A909-721782B4CF41";
name = Regular;
paths = (
{
closed = 1;
nodes = (
"1266.86 1280 OFFCURVE",
"1240 1253.14 OFFCURVE",
"1240 1220 CURVE SMOOTH",
"1240 120 LINE",
"780 120 LINE",
"780 1220 LINE SMOOTH",
"780 1253.14 OFFCURVE",
"753.14 1280 OFFCURVE",
"720 1280 CURVE SMOOTH",
"140 1280 LINE SMOOTH",
"106.86 1280 OFFCURVE",
"80 1253.14 OFFCURVE",
"80 1220 CURVE SMOOTH",
"80 60 LINE SMOOTH",
"80 26.86 OFFCURVE",
"106.86 0 OFFCURVE",
"140 0 CURVE SMOOTH",
"173.14 0 OFFCURVE",
"200 26.86 OFFCURVE",
"200 60 CURVE SMOOTH",
"200 1160 LINE",
"660 1160 LINE",
"660 60 LINE SMOOTH",
"660 26.86 OFFCURVE",
"686.86 0 OFFCURVE",
"720 0 CURVE SMOOTH",
"1300 0 LINE SMOOTH",
"1333.14 0 OFFCURVE",
"1360 26.86 OFFCURVE",
"1360 60 CURVE SMOOTH",
"1360 1220 LINE SMOOTH",
"1360 1253.14 OFFCURVE",
"1333.14 1280 OFFCURVE",
"1300 1280 CURVE SMOOTH"
);
}
);
width = 1440;
}
);
unicode = 004E;
},
{
glyphname = O;
lastChange = "2014-01-05 14:11:34 +0000";
layers = (
{
layerId = "940E2F63-624A-4C3D-A909-721782B4CF41";
name = Regular;
paths = (
{
closed = 1;
nodes = (
"140 1280 LINE SMOOTH",
"106.86 1280 OFFCURVE",
"80 1253.14 OFFCURVE",
"80 1220 CURVE SMOOTH",
"80 60 LINE SMOOTH",
"80 26.86 OFFCURVE",
"106.86 0 OFFCURVE",
"140 0 CURVE SMOOTH",
"1300 0 LINE SMOOTH",
"1333.14 0 OFFCURVE",
"1360 26.86 OFFCURVE",
"1360 60 CURVE SMOOTH",
"1360 1220 LINE SMOOTH",
"1360 1253.14 OFFCURVE",
"1333.14 1280 OFFCURVE",
"1300 1280 CURVE SMOOTH"
);
},
{
closed = 1;
nodes = (
"1240 120 LINE",
"200 120 LINE",
"200 1160 LINE",
"1240 1160 LINE"
);
}
);
width = 1440;
}
);
unicode = 004F;
},
{
glyphname = P;
lastChange = "2014-01-05 14:11:34 +0000";
layers = (
{
layerId = "940E2F63-624A-4C3D-A909-721782B4CF41";
name = Regular;
paths = (
{
closed = 1;
nodes = (
"140 1280 LINE SMOOTH",
"106.86 1280 OFFCURVE",
"80 1253.14 OFFCURVE",
"80 1220 CURVE SMOOTH",
"80 60 LINE SMOOTH",
"80 26.86 OFFCURVE",
"106.86 0 OFFCURVE",
"140 0 CURVE SMOOTH",
"173.14 0 OFFCURVE",
"200 26.86 OFFCURVE",
"200 60 CURVE SMOOTH",
"200 1160 LINE",
"1240 1160 LINE",
"1240 700 LINE",
"720 700 LINE SMOOTH",
"686.86 700 OFFCURVE",
"660 673.14 OFFCURVE",
"660 640 CURVE SMOOTH",
"660 606.86 OFFCURVE",
"686.86 580 OFFCURVE",
"720 580 CURVE SMOOTH",
"1300 580 LINE SMOOTH",
"1333.14 580 OFFCURVE",
"1360 606.86 OFFCURVE",
"1360 640 CURVE SMOOTH",
"1360 1220 LINE SMOOTH",
"1360 1253.14 OFFCURVE",
"1333.14 1280 OFFCURVE",
"1300 1280 CURVE SMOOTH"
);
}
);
width = 1440;
}
);
unicode = 0050;
},
{
glyphname = Q;
lastChange = "2014-01-05 14:11:34 +0000";
layers = (
{
layerId = "940E2F63-624A-4C3D-A909-721782B4CF41";
name = Regular;
paths = (
{
closed = 1;
nodes = (
"140 1280 LINE SMOOTH",
"106.86 1280 OFFCURVE",
"80 1253.14 OFFCURVE",
"80 1220 CURVE SMOOTH",
"80 60 LINE SMOOTH",
"80 26.86 OFFCURVE",
"106.86 0 OFFCURVE",
"140 0 CURVE SMOOTH",
"1300 0 LINE SMOOTH",
"1333.14 0 OFFCURVE",
"1360 26.86 OFFCURVE",
"1360 60 CURVE SMOOTH",
"1360 1220 LINE SMOOTH",
"1360 1253.14 OFFCURVE",
"1333.14 1280 OFFCURVE",
"1300 1280 CURVE SMOOTH"
);
},
{
closed = 1;
nodes = (
"1240 120 LINE",
"780 120 LINE",
"780 640 LINE SMOOTH",
"780 673.14 OFFCURVE",
"753.14 700 OFFCURVE",
"720 700 CURVE SMOOTH",
"686.86 700 OFFCURVE",
"660 673.14 OFFCURVE",
"660 640 CURVE SMOOTH",
"660 120 LINE",
"200 120 LINE",
"200 1160 LINE",
"1240 1160 LINE"
);
}
);
width = 1440;
}
);
unicode = 0051;
},
{
glyphname = R;
lastChange = "2014-01-05 14:11:34 +0000";
layers = (
{
layerId = "940E2F63-624A-4C3D-A909-721782B4CF41";
name = Regular;
paths = (
{
closed = 1;
nodes = (
"140 1280 LINE SMOOTH",
"106.86 1280 OFFCURVE",
"80 1253.14 OFFCURVE",
"80 1220 CURVE SMOOTH",
"80 60 LINE SMOOTH",
"80 26.86 OFFCURVE",
"106.86 0 OFFCURVE",
"140 0 CURVE SMOOTH",
"173.14 0 OFFCURVE",
"200 26.86 OFFCURVE",
"200 60 CURVE SMOOTH",
"200 1160 LINE",
"1240 1160 LINE",
"1240 700 LINE",
"720 700 LINE SMOOTH",
"686.86 700 OFFCURVE",
"660 673.14 OFFCURVE",
"660 640 CURVE SMOOTH",
"660 60 LINE SMOOTH",
"660 26.86 OFFCURVE",
"686.86 0 OFFCURVE",
"720 0 CURVE SMOOTH",
"1300 0 LINE SMOOTH",
"1333.14 0 OFFCURVE",
"1360 26.86 OFFCURVE",
"1360 60 CURVE SMOOTH",
"1360 93.14 OFFCURVE",
"1333.14 120 OFFCURVE",
"1300 120 CURVE SMOOTH",
"780 120 LINE",
"780 580 LINE",
"1300 580 LINE SMOOTH",
"1333.14 580 OFFCURVE",
"1360 606.86 OFFCURVE",
"1360 640 CURVE SMOOTH",
"1360 1220 LINE SMOOTH",
"1360 1253.14 OFFCURVE",
"1333.14 1280 OFFCURVE",
"1300 1280 CURVE SMOOTH"
);
}
);
width = 1440;
}
);
unicode = 0052;
},
{
glyphname = T;
lastChange = "2014-01-05 14:11:34 +0000";
layers = (
{
layerId = "940E2F63-624A-4C3D-A909-721782B4CF41";
name = Regular;
paths = (
{
closed = 1;
nodes = (
"140 1280 LINE SMOOTH",
"106.86 1280 OFFCURVE",
"80 1253.14 OFFCURVE",
"80 1220 CURVE SMOOTH",
"80 1186.86 OFFCURVE",
"106.86 1160 OFFCURVE",
"140 1160 CURVE SMOOTH",
"660 1160 LINE",
"660 60 LINE SMOOTH",
"660 26.86 OFFCURVE",
"686.86 0 OFFCURVE",
"720 0 CURVE SMOOTH",
"753.14 0 OFFCURVE",
"780 26.86 OFFCURVE",
"780 60 CURVE SMOOTH",
"780 1160 LINE",
"1300 1160 LINE SMOOTH",
"1333.14 1160 OFFCURVE",
"1360 1186.86 OFFCURVE",
"1360 1220 CURVE SMOOTH",
"1360 1253.14 OFFCURVE",
"1333.14 1280 OFFCURVE",
"1300 1280 CURVE SMOOTH"
);
}
);
width = 1440;
}
);
unicode = 0054;
},
{
glyphname = V;
lastChange = "2014-01-05 14:11:34 +0000";
layers = (
{
layerId = "940E2F63-624A-4C3D-A909-721782B4CF41";
name = Regular;
paths = (
{
closed = 1;
nodes = (
"1266.86 1280 OFFCURVE",
"1240 1253.14 OFFCURVE",
"1240 1220 CURVE SMOOTH",
"1240 700 LINE",
"720 700 LINE SMOOTH",
"686.86 700 OFFCURVE",
"660 673.14 OFFCURVE",
"660 640 CURVE SMOOTH",
"660 120 LINE",
"200 120 LINE",
"200 1220 LINE SMOOTH",
"200 1253.14 OFFCURVE",
"173.14 1280 OFFCURVE",
"140 1280 CURVE SMOOTH",
"106.86 1280 OFFCURVE",
"80 1253.14 OFFCURVE",
"80 1220 CURVE SMOOTH",
"80 60 LINE SMOOTH",
"80 26.86 OFFCURVE",
"106.86 0 OFFCURVE",
"140 0 CURVE SMOOTH",
"720 0 LINE SMOOTH",
"753.14 0 OFFCURVE",
"780 26.86 OFFCURVE",
"780 60 CURVE SMOOTH",
"780 580 LINE",
"1300 580 LINE SMOOTH",
"1333.14 580 OFFCURVE",
"1360 606.86 OFFCURVE",
"1360 640 CURVE SMOOTH",
"1360 1220 LINE SMOOTH",
"1360 1253.14 OFFCURVE",
"1333.14 1280 OFFCURVE",
"1300 1280 CURVE SMOOTH"
);
}
);
width = 1440;
}
);
unicode = 0056;
},
{
glyphname = X;
lastChange = "2014-01-05 14:11:34 +0000";
layers = (
{
layerId = "940E2F63-624A-4C3D-A909-721782B4CF41";
name = Regular;
paths = (
{
closed = 1;
nodes = (
"140 1280 LINE SMOOTH",
"106.86 1280 OFFCURVE",
"80 1253.14 OFFCURVE",
"80 1220 CURVE SMOOTH",
"80 640 LINE SMOOTH",
"80 606.86 OFFCURVE",
"106.86 580 OFFCURVE",
"140 580 CURVE SMOOTH",
"173.14 580 OFFCURVE",
"200 606.86 OFFCURVE",
"200 640 CURVE SMOOTH",
"200 1160 LINE",
"660 1160 LINE",
"660 120 LINE",
"140 120 LINE SMOOTH",
"106.86 120 OFFCURVE",
"80 93.14 OFFCURVE",
"80 60 CURVE SMOOTH",
"80 26.86 OFFCURVE",
"106.86 0 OFFCURVE",
"140 0 CURVE SMOOTH",
"1300 0 LINE SMOOTH",
"1333.14 0 OFFCURVE",
"1360 26.86 OFFCURVE",
"1360 60 CURVE SMOOTH",
"1360 640 LINE SMOOTH",
"1360 673.14 OFFCURVE",
"1333.14 700 OFFCURVE",
"1300 700 CURVE SMOOTH",
"1266.86 700 OFFCURVE",
"1240 673.14 OFFCURVE",
"1240 640 CURVE SMOOTH",
"1240 120 LINE",
"780 120 LINE",
"780 1160 LINE",
"1300 1160 LINE SMOOTH",
"1333.14 1160 OFFCURVE",
"1360 1186.86 OFFCURVE",
"1360 1220 CURVE SMOOTH",
"1360 1253.14 OFFCURVE",
"1333.14 1280 OFFCURVE",
"1300 1280 CURVE SMOOTH"
);
}
);
width = 1440;
}
);
unicode = 0058;
},
{
glyphname = Y;
lastChange = "2014-01-05 14:11:34 +0000";
layers = (
{
layerId = "940E2F63-624A-4C3D-A909-721782B4CF41";
name = Regular;
paths = (
{
closed = 1;
nodes = (
"1266.86 1280 OFFCURVE",
"1240 1253.14 OFFCURVE",
"1240 1220 CURVE SMOOTH",
"1240 700 LINE",
"200 700 LINE",
"200 1220 LINE SMOOTH",
"200 1253.14 OFFCURVE",
"173.14 1280 OFFCURVE",
"140 1280 CURVE SMOOTH",
"106.86 1280 OFFCURVE",
"80 1253.14 OFFCURVE",
"80 1220 CURVE SMOOTH",
"80 640 LINE SMOOTH",
"80 606.86 OFFCURVE",
"106.86 580 OFFCURVE",
"140 580 CURVE SMOOTH",
"1240 580 LINE",
"1240 120 LINE",
"140 120 LINE SMOOTH",
"106.86 120 OFFCURVE",
"80 93.14 OFFCURVE",
"80 60 CURVE SMOOTH",
"80 26.86 OFFCURVE",
"106.86 0 OFFCURVE",
"140 0 CURVE SMOOTH",
"1300 0 LINE SMOOTH",
"1333.14 0 OFFCURVE",
"1360 26.86 OFFCURVE",
"1360 60 CURVE SMOOTH",
"1360 1220 LINE SMOOTH",
"1360 1253.14 OFFCURVE",
"1333.14 1280 OFFCURVE",
"1300 1280 CURVE SMOOTH"
);
}
);
width = 1440;
}
);
unicode = 0059;
},
{
glyphname = zero;
lastChange = "2014-01-05 14:11:34 +0000";
layers = (
{
components = (
{
name = O;
transform = "{1, 0, 0, 1, 0, 0}";
}
);
layerId = "940E2F63-624A-4C3D-A909-721782B4CF41";
name = Regular;
paths = (
{
closed = 1;
nodes = (
"686.863 700 OFFCURVE",
"660 673.137 OFFCURVE",
"660 640 CURVE SMOOTH",
"660 606.863 OFFCURVE",
"686.863 580 OFFCURVE",
"720 580 CURVE SMOOTH",
"753.137 580 OFFCURVE",
"780 606.863 OFFCURVE",
"780 640 CURVE SMOOTH",
"780 673.137 OFFCURVE",
"753.137 700 OFFCURVE",
"720 700 CURVE SMOOTH"
);
}
);
width = 1440;
}
);
unicode = 0030;
},
{
glyphname = one;
lastChange = "2014-01-05 14:11:34 +0000";
layers = (
{
layerId = "940E2F63-624A-4C3D-A909-721782B4CF41";
name = Regular;
paths = (
{
closed = 1;
nodes = (
"140 1280 LINE SMOOTH",
"106.86 1280 OFFCURVE",
"80 1253.14 OFFCURVE",
"80 1220 CURVE SMOOTH",
"80 1186.86 OFFCURVE",
"106.86 1160 OFFCURVE",
"140 1160 CURVE SMOOTH",
"660 1160 LINE",
"660 120 LINE",
"140 120 LINE SMOOTH",
"106.86 120 OFFCURVE",
"80 93.14 OFFCURVE",
"80 60 CURVE SMOOTH",
"80 26.86 OFFCURVE",
"106.86 0 OFFCURVE",
"140 0 CURVE SMOOTH",
"1300 0 LINE SMOOTH",
"1333.14 0 OFFCURVE",
"1360 26.86 OFFCURVE",
"1360 60 CURVE SMOOTH",
"1360 93.14 OFFCURVE",
"1333.14 120 OFFCURVE",
"1300 120 CURVE SMOOTH",
"780 120 LINE",
"780 1220 LINE SMOOTH",
"780 1253.14 OFFCURVE",
"753.14 1280 OFFCURVE",
"720 1280 CURVE SMOOTH"
);
}
);
width = 1440;
}
);
unicode = 0031;
},
{
glyphname = four;
lastChange = "2014-01-05 14:11:34 +0000";
layers = (
{
layerId = "940E2F63-624A-4C3D-A909-721782B4CF41";
name = Regular;
paths = (
{
closed = 1;
nodes = (
"1266.86 1280 OFFCURVE",
"1240 1253.14 OFFCURVE",
"1240 1220 CURVE SMOOTH",
"1240 700 LINE",
"200 700 LINE",
"200 1220 LINE SMOOTH",
"200 1253.14 OFFCURVE",
"173.14 1280 OFFCURVE",
"140 1280 CURVE SMOOTH",
"106.86 1280 OFFCURVE",
"80 1253.14 OFFCURVE",
"80 1220 CURVE SMOOTH",
"80 640 LINE SMOOTH",
"80 606.86 OFFCURVE",
"106.86 580 OFFCURVE",
"140 580 CURVE SMOOTH",
"1240 580 LINE",
"1240 60 LINE SMOOTH",
"1240 26.86 OFFCURVE",
"1266.86 0 OFFCURVE",
"1300 0 CURVE SMOOTH",
"1333.14 0 OFFCURVE",
"1360 26.86 OFFCURVE",
"1360 60 CURVE SMOOTH",
"1360 1220 LINE SMOOTH",
"1360 1253.14 OFFCURVE",
"1333.14 1280 OFFCURVE",
"1300 1280 CURVE SMOOTH"
);
}
);
width = 1440;
}
);
unicode = 0034;
},
{
glyphname = seven;
lastChange = "2014-01-05 14:11:34 +0000";
layers = (
{
layerId = "940E2F63-624A-4C3D-A909-721782B4CF41";
name = Regular;
paths = (
{
closed = 1;
nodes = (
"140 1280 LINE SMOOTH",
"106.86 1280 OFFCURVE",
"80 1253.14 OFFCURVE",
"80 1220 CURVE SMOOTH",
"80 1186.86 OFFCURVE",
"106.86 1160 OFFCURVE",
"140 1160 CURVE SMOOTH",
"1240 1160 LINE",
"1240 700 LINE",
"720 700 LINE SMOOTH",
"686.86 700 OFFCURVE",
"660 673.14 OFFCURVE",
"660 640 CURVE SMOOTH",
"660 60 LINE SMOOTH",
"660 26.86 OFFCURVE",
"686.86 0 OFFCURVE",
"720 0 CURVE SMOOTH",
"753.14 0 OFFCURVE",
"780 26.86 OFFCURVE",
"780 60 CURVE SMOOTH",
"780 580 LINE",
"1299.99 580 LINE SMOOTH",
"1333.14 580 OFFCURVE",
"1360 606.86 OFFCURVE",
"1360 640 CURVE",
"1360 1220 LINE",
"1360 1253.14 OFFCURVE",
"1333.14 1280 OFFCURVE",
"1300 1280 CURVE SMOOTH"
);
}
);
width = 1440;
}
);
unicode = 0037;
},
{
glyphname = eight;
lastChange = "2014-01-05 14:11:34 +0000";
layers = (
{
layerId = "940E2F63-624A-4C3D-A909-721782B4CF41";
name = Regular;
paths = (
{
closed = 1;
nodes = (
"140 1280 LINE SMOOTH",
"106.86 1280 OFFCURVE",
"80 1253.14 OFFCURVE",
"80 1220 CURVE SMOOTH",
"80 60 LINE SMOOTH",
"80 26.86 OFFCURVE",
"106.86 0 OFFCURVE",
"140 0 CURVE SMOOTH",
"1300 0 LINE SMOOTH",
"1333.14 0 OFFCURVE",
"1360 26.86 OFFCURVE",
"1360 60 CURVE SMOOTH",
"1360 1220 LINE SMOOTH",
"1360 1253.14 OFFCURVE",
"1333.14 1280 OFFCURVE",
"1300 1280 CURVE SMOOTH"
);
},
{
closed = 1;
nodes = (
"1240 120 LINE",
"200 120 LINE",
"200 580 LINE",
"1240 580 LINE"
);
},
{
closed = 1;
nodes = (
"1240 700 LINE",
"200 700 LINE",
"200 1160 LINE",
"1240 1160 LINE"
);
}
);
width = 1440;
}
);
unicode = 0038;
},
{
glyphname = asterisk;
lastChange = "2014-01-05 14:11:34 +0000";
layers = (
{
components = (
{
name = plus;
transform = "{1, 0, 0, 1, 0, 0}";
}
);
layerId = "940E2F63-624A-4C3D-A909-721782B4CF41";
name = Regular;
paths = (
{
closed = 1;
nodes = (
"1266.86 1280 OFFCURVE",
"1240 1253.14 OFFCURVE",
"1240 1220 CURVE SMOOTH",
"1240 1186.86 OFFCURVE",
"1266.86 1160 OFFCURVE",
"1300 1160 CURVE SMOOTH",
"1333.14 1160 OFFCURVE",
"1360 1186.86 OFFCURVE",
"1360 1220 CURVE SMOOTH",
"1360 1253.14 OFFCURVE",
"1333.14 1280 OFFCURVE",
"1300 1280 CURVE SMOOTH"
);
},
{
closed = 1;
nodes = (
"106.863 120 OFFCURVE",
"80 93.137 OFFCURVE",
"80 60 CURVE SMOOTH",
"80 26.863 OFFCURVE",
"106.863 0 OFFCURVE",
"140 0 CURVE SMOOTH",
"173.137 0 OFFCURVE",
"200 26.863 OFFCURVE",
"200 60 CURVE SMOOTH",
"200 93.137 OFFCURVE",
"173.137 120 OFFCURVE",
"140 120 CURVE SMOOTH"
);
},
{
closed = 1;
nodes = (
"106.863 1280 OFFCURVE",
"80 1253.14 OFFCURVE",
"80 1220 CURVE SMOOTH",
"80 1186.86 OFFCURVE",
"106.863 1160 OFFCURVE",
"140 1160 CURVE SMOOTH",
"173.137 1160 OFFCURVE",
"200 1186.86 OFFCURVE",
"200 1220 CURVE SMOOTH",
"200 1253.14 OFFCURVE",
"173.137 1280 OFFCURVE",
"140 1280 CURVE SMOOTH"
);
},
{
closed = 1;
nodes = (
"1266.86 120 OFFCURVE",
"1240 93.137 OFFCURVE",
"1240 60 CURVE SMOOTH",
"1240 26.863 OFFCURVE",
"1266.86 0 OFFCURVE",
"1300 0 CURVE SMOOTH",
"1333.14 0 OFFCURVE",
"1360 26.863 OFFCURVE",
"1360 60 CURVE SMOOTH",
"1360 93.137 OFFCURVE",
"1333.14 120 OFFCURVE",
"1300 120 CURVE SMOOTH"
);
}
);
width = 1440;
}
);
unicode = 002A;
},
{
glyphname = backslash;
lastChange = "2014-01-05 14:11:34 +0000";
layers = (
{
layerId = "940E2F63-624A-4C3D-A909-721782B4CF41";
name = Regular;
paths = (
{
closed = 1;
nodes = (
"1266.86 1280 OFFCURVE",
"1240 1253.14 OFFCURVE",
"1240 1220 CURVE SMOOTH",
"1240 60 LINE SMOOTH",
"1240 26.86 OFFCURVE",
"1266.86 0 OFFCURVE",
"1300 0 CURVE SMOOTH",
"1333.14 0 OFFCURVE",
"1360 26.86 OFFCURVE",
"1360 60 CURVE SMOOTH",
"1360 1220 LINE SMOOTH",
"1360 1253.14 OFFCURVE",
"1333.14 1280 OFFCURVE",
"1300 1280 CURVE SMOOTH"
);
},
{
closed = 1;
nodes = (
"106.86 1280 OFFCURVE",
"80 1253.14 OFFCURVE",
"80 1220 CURVE SMOOTH",
"80 60 LINE SMOOTH",
"80 26.86 OFFCURVE",
"106.86 0 OFFCURVE",
"140 0 CURVE SMOOTH",
"173.14 0 OFFCURVE",
"200 26.86 OFFCURVE",
"200 60 CURVE SMOOTH",
"200 1220 LINE SMOOTH",
"200 1253.14 OFFCURVE",
"173.14 1280 OFFCURVE",
"140 1280 CURVE SMOOTH"
);
},
{
closed = 1;
nodes = (
"686.86 1280 OFFCURVE",
"660 1253.14 OFFCURVE",
"660 1220 CURVE SMOOTH",
"660 60 LINE SMOOTH",
"660 26.86 OFFCURVE",
"686.86 0 OFFCURVE",
"720 0 CURVE SMOOTH",
"753.14 0 OFFCURVE",
"780 26.86 OFFCURVE",
"780 60 CURVE SMOOTH",
"780 1220 LINE SMOOTH",
"780 1253.14 OFFCURVE",
"753.14 1280 OFFCURVE",
"720 1280 CURVE SMOOTH"
);
}
);
width = 1440;
}
);
unicode = 005C;
},
{
glyphname = bullet;
lastChange = "2014-01-05 14:11:34 +0000";
layers = (
{
layerId = "940E2F63-624A-4C3D-A909-721782B4CF41";
name = Regular;
paths = (
{
closed = 1;
nodes = (
"140 1280 LINE SMOOTH",
"106.86 1280 OFFCURVE",
"80 1253.14 OFFCURVE",
"80 1220 CURVE SMOOTH",
"80 1186.86 OFFCURVE",
"106.86 1160 OFFCURVE",
"140 1160 CURVE SMOOTH",
"1300 1160 LINE SMOOTH",
"1333.14 1160 OFFCURVE",
"1360 1186.86 OFFCURVE",
"1360 1220 CURVE SMOOTH",
"1360 1253.14 OFFCURVE",
"1333.14 1280 OFFCURVE",
"1300 1280 CURVE SMOOTH"
);
},
{
closed = 1;
nodes = (
"140 120 LINE SMOOTH",
"106.86 120 OFFCURVE",
"80 93.14 OFFCURVE",
"80 60 CURVE SMOOTH",
"80 26.86 OFFCURVE",
"106.86 0 OFFCURVE",
"140 0 CURVE SMOOTH",
"1300 0 LINE SMOOTH",
"1333.14 0 OFFCURVE",
"1360 26.86 OFFCURVE",
"1360 60 CURVE SMOOTH",
"1360 93.14 OFFCURVE",
"1333.14 120 OFFCURVE",
"1300 120 CURVE SMOOTH"
);
},
{
closed = 1;
nodes = (
"140 700 LINE SMOOTH",
"106.86 700 OFFCURVE",
"80 673.14 OFFCURVE",
"80 640 CURVE SMOOTH",
"80 606.86 OFFCURVE",
"106.86 580 OFFCURVE",
"140 580 CURVE SMOOTH",
"1300 580 LINE SMOOTH",
"1333.14 580 OFFCURVE",
"1360 606.86 OFFCURVE",
"1360 640 CURVE SMOOTH",
"1360 673.14 OFFCURVE",
"1333.14 700 OFFCURVE",
"1300 700 CURVE SMOOTH"
);
}
);
width = 1440;
}
);
unicode = 2022;
},
{
glyphname = comma;
lastChange = "2014-01-05 14:11:34 +0000";
layers = (
{
layerId = "940E2F63-624A-4C3D-A909-721782B4CF41";
name = Regular;
paths = (
{
closed = 1;
nodes = (
"140 1280 LINE SMOOTH",
"106.86 1280 OFFCURVE",
"80 1253.14 OFFCURVE",
"80 1220 CURVE SMOOTH",
"80 60 LINE SMOOTH",
"80 26.86 OFFCURVE",
"106.86 0 OFFCURVE",
"140 0 CURVE SMOOTH",
"1300 0 LINE SMOOTH",
"1333.14 0 OFFCURVE",
"1360 26.86 OFFCURVE",
"1360 60 CURVE SMOOTH",
"1360 1220 LINE SMOOTH",
"1360 1253.14 OFFCURVE",
"1333.14 1280 OFFCURVE",
"1300 1280 CURVE SMOOTH"
);
}
);
width = 1440;
}
);
unicode = 002C;
},
{
glyphname = ellipsis;
lastChange = "2014-01-05 14:11:34 +0000";
layers = (
{
layerId = "940E2F63-624A-4C3D-A909-721782B4CF41";
name = Regular;
paths = (
{
closed = 1;
nodes = (
"140 1280 LINE SMOOTH",
"106.86 1280 OFFCURVE",
"80 1253.14 OFFCURVE",
"80 1220 CURVE SMOOTH",
"80 1186.86 OFFCURVE",
"106.86 1160 OFFCURVE",
"140 1160 CURVE SMOOTH",
"1300 1160 LINE SMOOTH",
"1333.14 1160 OFFCURVE",
"1360 1186.86 OFFCURVE",
"1360 1220 CURVE SMOOTH",
"1360 1253.14 OFFCURVE",
"1333.14 1280 OFFCURVE",
"1300 1280 CURVE SMOOTH"
);
},
{
closed = 1;
nodes = (
"106.863 120 OFFCURVE",
"80 93.137 OFFCURVE",
"80 60 CURVE SMOOTH",
"80 26.863 OFFCURVE",
"106.863 0 OFFCURVE",
"140 0 CURVE SMOOTH",
"173.137 0 OFFCURVE",
"200 26.863 OFFCURVE",
"200 60 CURVE SMOOTH",
"200 93.137 OFFCURVE",
"173.137 120 OFFCURVE",
"140 120 CURVE SMOOTH"
);
},
{
closed = 1;
nodes = (
"686.863 120 OFFCURVE",
"660 93.137 OFFCURVE",
"660 60 CURVE SMOOTH",
"660 26.863 OFFCURVE",
"686.863 0 OFFCURVE",
"720 0 CURVE SMOOTH",
"753.137 0 OFFCURVE",
"780 26.863 OFFCURVE",
"780 60 CURVE SMOOTH",
"780 93.137 OFFCURVE",
"753.137 120 OFFCURVE",
"720 120 CURVE SMOOTH"
);
},
{
closed = 1;
nodes = (
"140 700 LINE SMOOTH",
"106.86 700 OFFCURVE",
"80 673.14 OFFCURVE",
"80 640 CURVE SMOOTH",
"80 606.86 OFFCURVE",
"106.86 580 OFFCURVE",
"140 580 CURVE SMOOTH",
"1300 580 LINE SMOOTH",
"1333.14 580 OFFCURVE",
"1360 606.86 OFFCURVE",
"1360 640 CURVE SMOOTH",
"1360 673.14 OFFCURVE",
"1333.14 700 OFFCURVE",
"1300 700 CURVE SMOOTH"
);
},
{
closed = 1;
nodes = (
"1266.86 120 OFFCURVE",
"1240 93.137 OFFCURVE",
"1240 60 CURVE SMOOTH",
"1240 26.863 OFFCURVE",
"1266.86 0 OFFCURVE",
"1300 0 CURVE SMOOTH",
"1333.14 0 OFFCURVE",
"1360 26.863 OFFCURVE",
"1360 60 CURVE SMOOTH",
"1360 93.137 OFFCURVE",
"1333.14 120 OFFCURVE",
"1300 120 CURVE SMOOTH"
);
}
);
width = 1440;
}
);
unicode = 2026;
},
{
glyphname = exclam;
lastChange = "2014-01-05 14:11:34 +0000";
layers = (
{
layerId = "940E2F63-624A-4C3D-A909-721782B4CF41";
name = Regular;
paths = (
{
closed = 1;
nodes = (
"1266.86 1280 OFFCURVE",
"1240 1253.14 OFFCURVE",
"1240 1220 CURVE SMOOTH",
"1240 640 LINE SMOOTH",
"1240 606.86 OFFCURVE",
"1266.86 580 OFFCURVE",
"1300 580 CURVE SMOOTH",
"1333.14 580 OFFCURVE",
"1360 606.86 OFFCURVE",
"1360 640 CURVE SMOOTH",
"1360 1220 LINE SMOOTH",
"1360 1253.14 OFFCURVE",
"1333.14 1280 OFFCURVE",
"1300 1280 CURVE SMOOTH"
);
},
{
closed = 1;
nodes = (
"106.86 120 OFFCURVE",
"80 93.14 OFFCURVE",
"80 60 CURVE SMOOTH",
"80 26.86 OFFCURVE",
"106.86 0 OFFCURVE",
"140 0 CURVE SMOOTH",
"173.14 0 OFFCURVE",
"200 26.86 OFFCURVE",
"200 60 CURVE SMOOTH",
"200 93.14 OFFCURVE",
"173.14 120 OFFCURVE",
"140 120 CURVE SMOOTH"
);
},
{
closed = 1;
nodes = (
"686.86 120 OFFCURVE",
"660 93.14 OFFCURVE",
"660 60 CURVE SMOOTH",
"660 26.86 OFFCURVE",
"686.86 0 OFFCURVE",
"720 0 CURVE SMOOTH",
"753.14 0 OFFCURVE",
"780 26.86 OFFCURVE",
"780 60 CURVE SMOOTH",
"780 93.14 OFFCURVE",
"753.14 120 OFFCURVE",
"720 120 CURVE SMOOTH"
);
},
{
closed = 1;
nodes = (
"106.86 1280 OFFCURVE",
"80 1253.14 OFFCURVE",
"80 1220 CURVE SMOOTH",
"80 640 LINE SMOOTH",
"80 606.86 OFFCURVE",
"106.86 580 OFFCURVE",
"140 580 CURVE SMOOTH",
"173.14 580 OFFCURVE",
"200 606.86 OFFCURVE",
"200 640 CURVE SMOOTH",
"200 1220 LINE SMOOTH",
"200 1253.14 OFFCURVE",
"173.14 1280 OFFCURVE",
"140 1280 CURVE SMOOTH"
);
},
{
closed = 1;
nodes = (
"1266.86 120 OFFCURVE",
"1240 93.14 OFFCURVE",
"1240 60 CURVE SMOOTH",
"1240 26.86 OFFCURVE",
"1266.86 0 OFFCURVE",
"1300 0 CURVE SMOOTH",
"1333.14 0 OFFCURVE",
"1360 26.86 OFFCURVE",
"1360 60 CURVE SMOOTH",
"1360 93.14 OFFCURVE",
"1333.14 120 OFFCURVE",
"1300 120 CURVE SMOOTH"
);
},
{
closed = 1;
nodes = (
"686.86 1280 OFFCURVE",
"660 1253.14 OFFCURVE",
"660 1220 CURVE SMOOTH",
"660 640 LINE SMOOTH",
"660 606.86 OFFCURVE",
"686.86 580 OFFCURVE",
"720 580 CURVE SMOOTH",
"753.14 580 OFFCURVE",
"780 606.86 OFFCURVE",
"780 640 CURVE SMOOTH",
"780 1220 LINE SMOOTH",
"780 1253.14 OFFCURVE",
"753.14 1280 OFFCURVE",
"720 1280 CURVE SMOOTH"
);
}
);
width = 1440;
}
);
unicode = 0021;
},
{
glyphname = numbersign;
lastChange = "2014-01-05 14:11:34 +0000";
layers = (
{
layerId = "940E2F63-624A-4C3D-A909-721782B4CF41";
name = Regular;
paths = (
{
closed = 1;
nodes = (
"140 1280 LINE SMOOTH",
"106.86 1280 OFFCURVE",
"80 1253.14 OFFCURVE",
"80 1220 CURVE SMOOTH",
"80 60 LINE SMOOTH",
"80 26.86 OFFCURVE",
"106.86 0 OFFCURVE",
"140 0 CURVE SMOOTH",
"1300 0 LINE SMOOTH",
"1333.14 0 OFFCURVE",
"1360 26.86 OFFCURVE",
"1360 60 CURVE SMOOTH",
"1360 1220 LINE SMOOTH",
"1360 1253.14 OFFCURVE",
"1333.14 1280 OFFCURVE",
"1300 1280 CURVE SMOOTH"
);
},
{
closed = 1;
nodes = (
"660 120 LINE",
"200 120 LINE",
"200 580 LINE",
"660 580 LINE"
);
},
{
closed = 1;
nodes = (
"660 700 LINE",
"200 700 LINE",
"200 1160 LINE",
"660 1160 LINE"
);
},
{
closed = 1;
nodes = (
"1240 120 LINE",
"780 120 LINE",
"780 580 LINE",
"1240 580 LINE"
);
},
{
closed = 1;
nodes = (
"1240 700 LINE",
"780 700 LINE",
"780 1160 LINE",
"1240 1160 LINE"
);
}
);
width = 1440;
}
);
unicode = 0023;
},
{
glyphname = question;
lastChange = "2014-01-05 14:11:34 +0000";
layers = (
{
layerId = "940E2F63-624A-4C3D-A909-721782B4CF41";
name = Regular;
paths = (
{
closed = 1;
nodes = (
"140 1280 LINE SMOOTH",
"106.863 1280 OFFCURVE",
"80 1253.14 OFFCURVE",
"80 1220 CURVE SMOOTH",
"80 1186.86 OFFCURVE",
"106.863 1160 OFFCURVE",
"140 1160 CURVE SMOOTH",
"1240 1160 LINE",
"1240 700 LINE",
"720 700 LINE SMOOTH",
"686.863 700 OFFCURVE",
"660 673.137 OFFCURVE",
"660 640 CURVE SMOOTH",
"660 606.863 OFFCURVE",
"686.863 580 OFFCURVE",
"720 580 CURVE SMOOTH",
"1300 580 LINE SMOOTH",
"1333.14 580 OFFCURVE",
"1360 606.863 OFFCURVE",
"1360 640 CURVE SMOOTH",
"1360 1220 LINE SMOOTH",
"1360 1253.14 OFFCURVE",
"1333.14 1280 OFFCURVE",
"1300 1280 CURVE SMOOTH"
);
},
{
closed = 1;
nodes = (
"686.863 120 OFFCURVE",
"660 93.137 OFFCURVE",
"660 60 CURVE SMOOTH",
"660 26.863 OFFCURVE",
"686.863 0 OFFCURVE",
"720 0 CURVE SMOOTH",
"753.137 0 OFFCURVE",
"780 26.863 OFFCURVE",
"780 60 CURVE SMOOTH",
"780 93.137 OFFCURVE",
"753.137 120 OFFCURVE",
"720 120 CURVE SMOOTH"
);
}
);
width = 1440;
}
);
unicode = 003F;
},
{
glyphname = braceleft;
lastChange = "2014-01-05 14:11:34 +0000";
layers = (
{
layerId = "940E2F63-624A-4C3D-A909-721782B4CF41";
name = Regular;
paths = (
{
closed = 1;
nodes = (
"720 1280 LINE SMOOTH",
"686.86 1280 OFFCURVE",
"660 1253.14 OFFCURVE",
"660 1220 CURVE SMOOTH",
"660 700 LINE",
"140 700 LINE SMOOTH",
"106.86 700 OFFCURVE",
"80 673.14 OFFCURVE",
"80 640 CURVE SMOOTH",
"80 606.86 OFFCURVE",
"106.86 580 OFFCURVE",
"140 580 CURVE SMOOTH",
"660 580 LINE",
"660 60 LINE SMOOTH",
"660 26.86 OFFCURVE",
"686.86 0 OFFCURVE",
"720 0 CURVE SMOOTH",
"1300 0 LINE SMOOTH",
"1333.14 0 OFFCURVE",
"1360 26.86 OFFCURVE",
"1360 60 CURVE SMOOTH",
"1360 93.14 OFFCURVE",
"1333.14 120 OFFCURVE",
"1300 120 CURVE SMOOTH",
"780 120 LINE",
"780 1160 LINE",
"1300 1160 LINE SMOOTH",
"1333.14 1160 OFFCURVE",
"1360 1186.86 OFFCURVE",
"1360 1220 CURVE SMOOTH",
"1360 1253.14 OFFCURVE",
"1333.14 1280 OFFCURVE",
"1300 1280 CURVE SMOOTH"
);
}
);
width = 1440;
}
);
unicode = 007B;
},
{
color = 0;
glyphname = dollar;
lastChange = "2014-01-05 14:11:34 +0000";
layers = (
{
components = (
{
name = S;
transform = "{1, 0, 0, 1, 0, 0}";
}
);
layerId = "940E2F63-624A-4C3D-A909-721782B4CF41";
name = Regular;
paths = (
{
closed = 1;
nodes = (
"660 1280 LINE",
"660 0 LINE",
"780 0 LINE",
"780 1280 LINE"
);
}
);
width = 1440;
}
);
unicode = 0024;
},
{
color = 0;
glyphname = euro;
lastChange = "2014-01-05 14:11:34 +0000";
layers = (
{
components = (
{
name = braceleft;
transform = "{1, 0, 0, 1, 0, 0}";
}
);
layerId = "940E2F63-624A-4C3D-A909-721782B4CF41";
name = Regular;
paths = (
{
closed = 1;
nodes = (
"720 700 LINE",
"720 580 LINE",
"1300 580 LINE SMOOTH",
"1333.14 580 OFFCURVE",
"1360 606.86 OFFCURVE",
"1360 640 CURVE SMOOTH",
"1360 673.14 OFFCURVE",
"1333.14 700 OFFCURVE",
"1300 700 CURVE SMOOTH"
);
}
);
width = 1440;
}
);
unicode = 20AC;
},
{
glyphname = divide;
lastChange = "2014-01-05 14:11:34 +0000";
layers = (
{
layerId = "940E2F63-624A-4C3D-A909-721782B4CF41";
name = Regular;
paths = (
{
closed = 1;
nodes = (
"140 700 LINE SMOOTH",
"106.86 700 OFFCURVE",
"80 673.14 OFFCURVE",
"80 640 CURVE SMOOTH",
"80 606.86 OFFCURVE",
"106.86 580 OFFCURVE",
"140 580 CURVE SMOOTH",
"1299.99 580 LINE SMOOTH",
"1333.14 580 OFFCURVE",
"1360 606.86 OFFCURVE",
"1360 640 CURVE SMOOTH",
"1360 673.14 OFFCURVE",
"1333.14 700 OFFCURVE",
"1300 700 CURVE SMOOTH"
);
},
{
closed = 1;
nodes = (
"686.863 120 OFFCURVE",
"660 93.137 OFFCURVE",
"660 60 CURVE SMOOTH",
"660 26.863 OFFCURVE",
"686.863 0 OFFCURVE",
"720 0 CURVE SMOOTH",
"753.137 0 OFFCURVE",
"780 26.863 OFFCURVE",
"780 60 CURVE SMOOTH",
"780 93.137 OFFCURVE",
"753.137 120 OFFCURVE",
"720 120 CURVE SMOOTH"
);
},
{
closed = 1;
nodes = (
"686.863 1280 OFFCURVE",
"660 1253.14 OFFCURVE",
"660 1220 CURVE SMOOTH",
"660 1186.86 OFFCURVE",
"686.863 1160 OFFCURVE",
"720 1160 CURVE SMOOTH",
"753.137 1160 OFFCURVE",
"780 1186.86 OFFCURVE",
"780 1220 CURVE SMOOTH",
"780 1253.14 OFFCURVE",
"753.137 1280 OFFCURVE",
"720 1280 CURVE SMOOTH"
);
}
);
width = 1440;
}
);
unicode = 00F7;
},
{
color = 0;
glyphname = percent;
lastChange = "2014-01-05 14:11:34 +0000";
layers = (
{
layerId = "940E2F63-624A-4C3D-A909-721782B4CF41";
name = Regular;
paths = (
{
closed = 1;
nodes = (
"1266.86 1280 OFFCURVE",
"1240 1253.14 OFFCURVE",
"1240 1220 CURVE SMOOTH",
"1240 700 LINE",
"140 700 LINE SMOOTH",
"106.86 700 OFFCURVE",
"80 673.14 OFFCURVE",
"80 640 CURVE SMOOTH",
"80 60 LINE SMOOTH",
"80 26.86 OFFCURVE",
"106.86 0 OFFCURVE",
"140 0 CURVE SMOOTH",
"173.14 0 OFFCURVE",
"200 26.86 OFFCURVE",
"200 60 CURVE SMOOTH",
"200 580 LINE",
"1299.99 580 LINE SMOOTH",
"1333.14 580 OFFCURVE",
"1360 606.86 OFFCURVE",
"1360 640 CURVE",
"1360 1220 LINE",
"1360 1253.14 OFFCURVE",
"1333.14 1280 OFFCURVE",
"1300 1280 CURVE SMOOTH"
);
},
{
closed = 1;
nodes = (
"720 120 LINE SMOOTH",
"686.86 120 OFFCURVE",
"660 93.14 OFFCURVE",
"660 60 CURVE SMOOTH",
"660 26.86 OFFCURVE",
"686.86 0 OFFCURVE",
"720 0 CURVE SMOOTH",
"1300 0 LINE SMOOTH",
"1333.14 0 OFFCURVE",
"1360 26.86 OFFCURVE",
"1360 60 CURVE SMOOTH",
"1360 93.14 OFFCURVE",
"1333.14 120 OFFCURVE",
"1300 120 CURVE SMOOTH"
);
},
{
closed = 1;
nodes = (
"140 1280 LINE SMOOTH",
"106.86 1280 OFFCURVE",
"80 1253.14 OFFCURVE",
"80 1220 CURVE SMOOTH",
"80 1186.86 OFFCURVE",
"106.86 1160 OFFCURVE",
"140 1160 CURVE SMOOTH",
"720 1160 LINE SMOOTH",
"753.14 1160 OFFCURVE",
"780 1186.86 OFFCURVE",
"780 1220 CURVE SMOOTH",
"780 1253.14 OFFCURVE",
"753.14 1280 OFFCURVE",
"720 1280 CURVE SMOOTH"
);
}
);
width = 1440;
}
);
unicode = 0025;
},
{
glyphname = plus;
lastChange = "2014-01-05 14:11:34 +0000";
layers = (
{
layerId = "940E2F63-624A-4C3D-A909-721782B4CF41";
name = Regular;
paths = (
{
closed = 1;
nodes = (
"686.86 1280 OFFCURVE",
"660 1253.14 OFFCURVE",
"660 1220 CURVE SMOOTH",
"660 700 LINE",
"140 700 LINE SMOOTH",
"106.86 700 OFFCURVE",
"80 673.14 OFFCURVE",
"80 640 CURVE SMOOTH",
"80 606.86 OFFCURVE",
"106.86 580 OFFCURVE",
"140 580 CURVE SMOOTH",
"660 580 LINE",
"660 60 LINE SMOOTH",
"660 26.86 OFFCURVE",
"686.86 0 OFFCURVE",
"720 0 CURVE SMOOTH",
"753.14 0 OFFCURVE",
"780 26.86 OFFCURVE",
"780 60 CURVE SMOOTH",
"780 580 LINE",
"1299.99 580 LINE SMOOTH",
"1333.14 580 OFFCURVE",
"1360 606.86 OFFCURVE",
"1360 640 CURVE SMOOTH",
"1360 673.14 OFFCURVE",
"1333.14 700 OFFCURVE",
"1300 700 CURVE SMOOTH",
"780 700 LINE",
"780 1220 LINE SMOOTH",
"780 1253.14 OFFCURVE",
"753.14 1280 OFFCURVE",
"720 1280 CURVE SMOOTH"
);
}
);
width = 1440;
}
);
unicode = 002B;
},
{
glyphname = ampersand;
lastChange = "2014-01-05 14:11:34 +0000";
layers = (
{
layerId = "940E2F63-624A-4C3D-A909-721782B4CF41";
name = Regular;
paths = (
{
closed = 1;
nodes = (
"720 1280 LINE SMOOTH",
"686.86 1280 OFFCURVE",
"660 1253.14 OFFCURVE",
"660 1220 CURVE SMOOTH",
"660 700 LINE",
"140 700 LINE SMOOTH",
"106.86 700 OFFCURVE",
"80 673.14 OFFCURVE",
"80 640 CURVE SMOOTH",
"80 60 LINE SMOOTH",
"80 26.86 OFFCURVE",
"106.86 0 OFFCURVE",
"140 0 CURVE SMOOTH",
"1300 0 LINE SMOOTH",
"1333.14 0 OFFCURVE",
"1360 26.86 OFFCURVE",
"1360 60 CURVE SMOOTH",
"1360 93.14 OFFCURVE",
"1333.14 120 OFFCURVE",
"1300 120 CURVE SMOOTH",
"200 120 LINE",
"200 580 LINE",
"1300 580 LINE SMOOTH",
"1333.14 580 OFFCURVE",
"1360 606.86 OFFCURVE",
"1360 640 CURVE SMOOTH",
"1360 1220 LINE SMOOTH",
"1360 1253.14 OFFCURVE",
"1333.14 1280 OFFCURVE",
"1300 1280 CURVE SMOOTH"
);
},
{
closed = 1;
nodes = (
"1240 700 LINE",
"780 700 LINE",
"780 1160 LINE",
"1240 1160 LINE"
);
}
);
width = 1440;
}
);
unicode = 0026;
},
{
glyphname = degree;
lastChange = "2014-01-05 14:11:34 +0000";
layers = (
{
layerId = "940E2F63-624A-4C3D-A909-721782B4CF41";
name = Regular;
paths = (
{
closed = 1;
nodes = (
"1266.86 700 OFFCURVE",
"1240 673.14 OFFCURVE",
"1240 640 CURVE SMOOTH",
"1240 120 LINE",
"720 120 LINE SMOOTH",
"686.86 120 OFFCURVE",
"660 93.14 OFFCURVE",
"660 60 CURVE SMOOTH",
"660 26.86 OFFCURVE",
"686.86 0 OFFCURVE",
"720 0 CURVE SMOOTH",
"1300 0 LINE SMOOTH",
"1333.14 0 OFFCURVE",
"1360 26.86 OFFCURVE",
"1360 60 CURVE SMOOTH",
"1360 640 LINE SMOOTH",
"1360 673.14 OFFCURVE",
"1333.14 700 OFFCURVE",
"1300 700 CURVE SMOOTH"
);
},
{
closed = 1;
nodes = (
"140 1280 LINE SMOOTH",
"106.86 1280 OFFCURVE",
"80 1253.14 OFFCURVE",
"80 1220 CURVE SMOOTH",
"80 640 LINE SMOOTH",
"80 606.86 OFFCURVE",
"106.86 580 OFFCURVE",
"140 580 CURVE SMOOTH",
"720 580 LINE SMOOTH",
"753.14 580 OFFCURVE",
"780 606.86 OFFCURVE",
"780 640 CURVE SMOOTH",
"780 1220 LINE SMOOTH",
"780 1253.14 OFFCURVE",
"753.14 1280 OFFCURVE",
"720 1280 CURVE SMOOTH"
);
},
{
closed = 1;
nodes = (
"660 700 LINE",
"200 700 LINE",
"200 1160 LINE",
"660 1160 LINE"
);
}
);
width = 1440;
}
);
unicode = 00B0;
},
